<svg xmlns="http://www.w3.org/2000/svg" width="66" height="50" viewBox="0 0 66 50" fill="none">
  <path d="M20.4046 18.3726C20.4046 18.072 20.162 17.8301 19.8606 17.8301H19.5078C19.2064 17.8301 18.9639 18.072 18.9639 18.3726V20.8653C18.9639 21.1659 19.2064 21.4078 19.5078 21.4078H19.8606C20.162 21.4078 20.4046 21.1659 20.4046 20.8653V18.3726Z" fill="#EC3848"/>
  <path d="M22.5735 18.3726C22.5735 18.072 22.3309 17.8301 22.0296 17.8301H21.6767C21.3754 17.8301 21.1328 18.072 21.1328 18.3726V20.8653C21.1328 21.1659 21.3754 21.4078 21.6767 21.4078H22.0296C22.3309 21.4078 22.5735 21.1659 22.5735 20.8653V18.3726Z" fill="#EC3848"/>
  <path d="M22.5734 22.6695C22.5734 22.3689 22.3308 22.127 22.0295 22.127H19.5156C19.2142 22.127 18.9717 22.3689 18.9717 22.6695V25.8806C18.9717 26.1812 19.2142 26.4231 19.5156 26.4231H22.0295C22.3308 26.4231 22.5734 26.1812 22.5734 25.8806V22.6695Z" fill="#EC3848"/>
  <path d="M66 49.4511C34.2239 38.388 0.492482 47.8528 0.15436 47.9482L0 47.237C0.860007 46.9877 13.2603 40.5508 32.0408 40.5508C46.4257 40.5508 65.4414 47.9408 65.4414 47.9408L66 49.4511Z" fill="#EC3848"/>
  <path d="M65.1107 26.5255L50.1525 12.2C50.0202 12.0754 50.0569 11.9801 49.8805 11.9141L48.8735 11.4449V6.12961C48.8735 5.37448 47.8738 4.94193 47.08 4.94193H44.3676C43.5738 4.94193 43.1107 5.37448 43.1107 6.12961V7.09003H42.3904V7.8085H43.1107V9.28944L19.3172 0.0665577C18.8982 -0.0947328 18.3837 0.0445635 18.1338 0.403802L0.514646 26.0123C0.374987 26.2176 0.352937 26.4815 0.470545 26.6942C0.595503 26.9068 1.74218 26.9068 1.99209 26.9068L18.391 2.42726C18.5454 2.20732 18.7953 2.06803 19.0746 2.04603C19.3539 2.02404 19.6259 2.12668 19.817 2.31729L42.5594 25.6971C42.8093 25.9537 43.1548 26.1076 43.5223 26.1296L49.6379 26.4376L42.4345 27.3027L20.4124 4.88328C20.1772 4.64134 19.8391 4.51671 19.4936 4.5387C19.1481 4.5607 18.8321 4.72932 18.6336 4.99325L2.78594 27.0314L5.51298 27.8598L5.68939 45.5358L7.83573 44.3628V35.1546L16.4578 20.873V27.5593C16.4578 28.6296 17.5972 29.2895 18.7144 29.2895H23.4702C24.5875 29.2895 25.8224 28.6296 25.8224 27.5593V17.0094C25.8224 15.939 24.5875 14.9639 23.4702 14.9639H20.1625L22.397 11.2909C22.5514 11.0636 22.8087 10.9463 23.0953 10.9243C23.382 10.9023 23.6613 11.027 23.8451 11.2249L41.4495 29.986C41.5671 30.1179 41.67 30.3599 41.67 30.5358V33.1824C41.67 33.681 42.0449 34.2895 42.5668 34.2895H47.5063C47.7636 34.2895 47.9988 34.0915 48.1825 33.9229L53.7616 28.5123C54.1805 28.1018 54.7539 27.8818 55.3419 27.9038L58.7672 28.0211L54.2981 34.5901C54.0997 34.8833 53.7542 35.0006 53.3867 35.0006H42.5741C42.0522 35.0006 41.6774 35.5211 41.6774 36.027V42.7866C41.942 42.8085 42.2139 42.8379 42.4786 42.8745L43.5811 37.288L54.6436 37.1634V45.3012C56.9223 45.5358 58.9069 46.6429 60.943 47.6326L62.2367 47.8159C62.81 47.486 63.1555 48.1165 63.1775 47.464L63.1996 34.5827C63.1996 34.3848 63.3392 34.2162 63.5303 34.1722L64.4712 33.9596C64.8828 33.8643 65.0225 33.3511 64.7138 33.0651L59.2671 28.0211L65.537 28.2777C65.7282 27.6619 65.5885 26.9801 65.1107 26.5255ZM45.9921 10.4185L44.5514 9.8173V7.8085H45.9921V10.4185ZM45.9921 7.09003H44.5514V6.37155H45.9921V7.09003ZM23.4702 16.3936C23.7275 16.3936 23.6613 16.7601 23.6613 17.0094V27.178C23.6613 27.3833 23.4923 27.5519 23.2864 27.5519H18.2808C18.075 27.5519 17.9059 27.3833 17.9059 27.178V18.2704L19.2731 16.3936H23.4702Z" fill="#EC3848"/>
</svg>