<svg width="220" height="50" viewBox="0 0 220 50" fill="none" xmlns="http://www.w3.org/2000/svg">
<path d="M20.4046 18.3726C20.4046 18.072 20.162 17.8301 19.8606 17.8301H19.5078C19.2064 17.8301 18.9639 18.072 18.9639 18.3726V20.8653C18.9639 21.1659 19.2064 21.4078 19.5078 21.4078H19.8606C20.162 21.4078 20.4046 21.1659 20.4046 20.8653V18.3726Z" fill="#EC3848"/>
<path d="M22.5735 18.3726C22.5735 18.072 22.3309 17.8301 22.0296 17.8301H21.6767C21.3754 17.8301 21.1328 18.072 21.1328 18.3726V20.8653C21.1328 21.1659 21.3754 21.4078 21.6767 21.4078H22.0296C22.3309 21.4078 22.5735 21.1659 22.5735 20.8653V18.3726Z" fill="#EC3848"/>
<path d="M22.5734 22.6695C22.5734 22.3689 22.3308 22.127 22.0295 22.127H19.5156C19.2142 22.127 18.9717 22.3689 18.9717 22.6695V25.8806C18.9717 26.1812 19.2142 26.4231 19.5156 26.4231H22.0295C22.3308 26.4231 22.5734 26.1812 22.5734 25.8806V22.6695Z" fill="#EC3848"/>
<path d="M66 49.4511C34.2239 38.388 0.492482 47.8528 0.15436 47.9482L0 47.237C0.860007 46.9877 13.2603 40.5508 32.0408 40.5508C46.4257 40.5508 65.4414 47.9408 65.4414 47.9408L66 49.4511Z" fill="#EC3848"/>
<path d="M65.1107 26.5255L50.1525 12.2C50.0202 12.0754 50.0569 11.9801 49.8805 11.9141L48.8735 11.4449V6.12961C48.8735 5.37448 47.8738 4.94193 47.08 4.94193H44.3676C43.5738 4.94193 43.1107 5.37448 43.1107 6.12961V7.09003H42.3904V7.8085H43.1107V9.28944L19.3172 0.0665577C18.8982 -0.0947328 18.3837 0.0445635 18.1338 0.403802L0.514646 26.0123C0.374987 26.2176 0.352937 26.4815 0.470545 26.6942C0.595503 26.9068 1.74218 26.9068 1.99209 26.9068L18.391 2.42726C18.5454 2.20732 18.7953 2.06803 19.0746 2.04603C19.3539 2.02404 19.6259 2.12668 19.817 2.31729L42.5594 25.6971C42.8093 25.9537 43.1548 26.1076 43.5223 26.1296L49.6379 26.4376L42.4345 27.3027L20.4124 4.88328C20.1772 4.64134 19.8391 4.51671 19.4936 4.5387C19.1481 4.5607 18.8321 4.72932 18.6336 4.99325L2.78594 27.0314L5.51298 27.8598L5.68939 45.5358L7.83573 44.3628V35.1546L16.4578 20.873V27.5593C16.4578 28.6296 17.5972 29.2895 18.7144 29.2895H23.4702C24.5875 29.2895 25.8224 28.6296 25.8224 27.5593V17.0094C25.8224 15.939 24.5875 14.9639 23.4702 14.9639H20.1625L22.397 11.2909C22.5514 11.0636 22.8087 10.9463 23.0953 10.9243C23.382 10.9023 23.6613 11.027 23.8451 11.2249L41.4495 29.986C41.5671 30.1179 41.67 30.3599 41.67 30.5358V33.1824C41.67 33.681 42.0449 34.2895 42.5668 34.2895H47.5063C47.7636 34.2895 47.9988 34.0915 48.1825 33.9229L53.7616 28.5123C54.1805 28.1018 54.7539 27.8818 55.3419 27.9038L58.7672 28.0211L54.2981 34.5901C54.0997 34.8833 53.7542 35.0006 53.3867 35.0006H42.5741C42.0522 35.0006 41.6774 35.5211 41.6774 36.027V42.7866C41.942 42.8085 42.2139 42.8379 42.4786 42.8745L43.5811 37.288L54.6436 37.1634V45.3012C56.9223 45.5358 58.9069 46.6429 60.943 47.6326L62.2367 47.8159C62.81 47.486 63.1555 48.1165 63.1775 47.464L63.1996 34.5827C63.1996 34.3848 63.3392 34.2162 63.5303 34.1722L64.4712 33.9596C64.8828 33.8643 65.0225 33.3511 64.7138 33.0651L59.2671 28.0211L65.537 28.2777C65.7282 27.6619 65.5885 26.9801 65.1107 26.5255ZM45.9921 10.4185L44.5514 9.8173V7.8085H45.9921V10.4185ZM45.9921 7.09003H44.5514V6.37155H45.9921V7.09003ZM23.4702 16.3936C23.7275 16.3936 23.6613 16.7601 23.6613 17.0094V27.178C23.6613 27.3833 23.4923 27.5519 23.2864 27.5519H18.2808C18.075 27.5519 17.9059 27.3833 17.9059 27.178V18.2704L19.2731 16.3936H23.4702Z" fill="#EC3848"/>
<path d="M108.68 39.79C107.91 40.0933 106.907 40.245 105.67 40.245C104.48 40.245 103.512 39.9533 102.765 39.37C102.018 38.7867 101.645 37.8067 101.645 36.43C101.645 34.4233 101.377 32.86 100.84 31.74C100.327 30.62 99.3467 30.06 97.9 30.06H93.84V40H88.52V15.99H99.265C101.552 15.99 103.465 16.4567 105.005 17.39C106.568 18.3233 107.35 19.84 107.35 21.94C107.35 22.78 107.163 23.6083 106.79 24.425C106.417 25.2417 105.892 25.9417 105.215 26.525C104.562 27.1083 103.838 27.47 103.045 27.61V27.785C104.072 28.1117 104.97 28.8117 105.74 29.885C106.51 30.9583 106.895 32.3933 106.895 34.19C106.895 36.7567 107.49 38.2267 108.68 38.6V39.79ZM99.09 25.825C99.86 25.825 100.513 25.5683 101.05 25.055C101.61 24.5417 101.89 23.9233 101.89 23.2V22.955C101.89 22.185 101.622 21.555 101.085 21.065C100.572 20.5517 99.9067 20.295 99.09 20.295H93.84V25.825H99.09ZM132.376 29.71C132.376 31.9033 131.898 33.805 130.941 35.415C129.985 37.025 128.69 38.25 127.056 39.09C125.446 39.93 123.65 40.35 121.666 40.35C119.683 40.35 117.875 39.93 116.241 39.09C114.631 38.25 113.348 37.025 112.391 35.415C111.435 33.805 110.956 31.9033 110.956 29.71V26.28C110.956 24.0867 111.435 22.185 112.391 20.575C113.348 18.965 114.631 17.74 116.241 16.9C117.875 16.06 119.683 15.64 121.666 15.64C123.65 15.64 125.446 16.06 127.056 16.9C128.69 17.74 129.985 18.965 130.941 20.575C131.898 22.185 132.376 24.0867 132.376 26.28V29.71ZM126.706 25.51C126.706 23.7367 126.24 22.3717 125.306 21.415C124.373 20.435 123.16 19.945 121.666 19.945C120.173 19.945 118.96 20.435 118.026 21.415C117.093 22.3717 116.626 23.7367 116.626 25.51V30.48C116.626 32.2533 117.093 33.63 118.026 34.61C118.96 35.5667 120.173 36.045 121.666 36.045C123.16 36.045 124.373 35.5667 125.306 34.61C126.24 33.63 126.706 32.2533 126.706 30.48V25.51ZM157.157 29.71C157.157 31.9033 156.678 33.805 155.722 35.415C154.765 37.025 153.47 38.25 151.837 39.09C150.227 39.93 148.43 40.35 146.447 40.35C144.463 40.35 142.655 39.93 141.022 39.09C139.412 38.25 138.128 37.025 137.172 35.415C136.215 33.805 135.737 31.9033 135.737 29.71V26.28C135.737 24.0867 136.215 22.185 137.172 20.575C138.128 18.965 139.412 17.74 141.022 16.9C142.655 16.06 144.463 15.64 146.447 15.64C148.43 15.64 150.227 16.06 151.837 16.9C153.47 17.74 154.765 18.965 155.722 20.575C156.678 22.185 157.157 24.0867 157.157 26.28V29.71ZM151.487 25.51C151.487 23.7367 151.02 22.3717 150.087 21.415C149.153 20.435 147.94 19.945 146.447 19.945C144.953 19.945 143.74 20.435 142.807 21.415C141.873 22.3717 141.407 23.7367 141.407 25.51V30.48C141.407 32.2533 141.873 33.63 142.807 34.61C143.74 35.5667 144.953 36.045 146.447 36.045C147.94 36.045 149.153 35.5667 150.087 34.61C151.02 33.63 151.487 32.2533 151.487 30.48V25.51ZM177.037 20.295H166.677V26.035H175.987V30.34H166.677V40H161.357V15.99H177.597L177.037 20.295ZM181.079 40V15.99H186.504V35.52H196.374L196.969 40H181.079ZM211.081 30.795V40H205.691V30.795L197.466 15.99H203.556L208.561 25.51H208.736L213.741 15.99H219.271L211.081 30.795Z" fill="white"/>
</svg>
