<svg xmlns="http://www.w3.org/2000/svg" width="28" height="28" viewBox="0 0 28 28" fill="none">
  <path d="M17.0332 24.8501C16.6832 25.1138 16.311 25.3915 15.9949 25.6668H18.6665C18.9759 25.6668 19.2727 25.7897 19.4915 26.0085C19.7103 26.2273 19.8332 26.5241 19.8332 26.8335C19.8332 27.1429 19.7103 27.4396 19.4915 27.6584C19.2727 27.8772 18.9759 28.0001 18.6665 28.0001H13.9999C13.6904 28.0001 13.3937 27.8772 13.1749 27.6584C12.9561 27.4396 12.8332 27.1429 12.8332 26.8335C12.8332 25.0835 14.3207 23.9681 15.6332 22.9835C16.5082 22.3278 17.4999 21.5835 17.4999 21.0001C17.4999 20.6907 17.3769 20.394 17.1581 20.1752C16.9394 19.9564 16.6426 19.8335 16.3332 19.8335C16.0238 19.8335 15.727 19.9564 15.5082 20.1752C15.2894 20.394 15.1665 20.6907 15.1665 21.0001C15.1665 21.3096 15.0436 21.6063 14.8248 21.8251C14.606 22.0439 14.3093 22.1668 13.9999 22.1668C13.6904 22.1668 13.3937 22.0439 13.1749 21.8251C12.9561 21.6063 12.8332 21.3096 12.8332 21.0001C12.8332 20.0719 13.2019 19.1816 13.8583 18.5253C14.5147 17.8689 15.4049 17.5001 16.3332 17.5001C17.2614 17.5001 18.1517 17.8689 18.8081 18.5253C19.4644 19.1816 19.8332 20.0719 19.8332 21.0001C19.8332 22.7501 18.3457 23.8655 17.0332 24.8501ZM26.8332 17.5001C26.5238 17.5001 26.227 17.6231 26.0082 17.8418C25.7894 18.0606 25.6665 18.3574 25.6665 18.6668V22.1668H24.4999C24.1904 22.1668 23.8937 22.0439 23.6749 21.8251C23.4561 21.6063 23.3332 21.3096 23.3332 21.0001V18.6668C23.3332 18.3574 23.2103 18.0606 22.9915 17.8418C22.7727 17.6231 22.4759 17.5001 22.1665 17.5001C21.8571 17.5001 21.5604 17.6231 21.3416 17.8418C21.1228 18.0606 20.9999 18.3574 20.9999 18.6668V21.0001C20.9999 21.9284 21.3686 22.8186 22.025 23.475C22.6814 24.1314 23.5716 24.5001 24.4999 24.5001H25.6665V26.8335C25.6665 27.1429 25.7894 27.4396 26.0082 27.6584C26.227 27.8772 26.5238 28.0001 26.8332 28.0001C27.1426 28.0001 27.4394 27.8772 27.6581 27.6584C27.8769 27.4396 27.9999 27.1429 27.9999 26.8335V18.6668C27.9999 18.3574 27.8769 18.0606 27.6581 17.8418C27.4394 17.6231 27.1426 17.5001 26.8332 17.5001ZM15.1665 14.0001V8.1668C15.1665 7.85739 15.0436 7.56064 14.8248 7.34185C14.606 7.12305 14.3093 7.00014 13.9999 7.00014C13.6904 7.00014 13.3937 7.12305 13.1749 7.34185C12.9561 7.56064 12.8332 7.85739 12.8332 8.1668V12.8335H9.33318C9.02376 12.8335 8.72702 12.9564 8.50823 13.1752C8.28943 13.394 8.16652 13.6907 8.16652 14.0001C8.16652 14.3096 8.28943 14.6063 8.50823 14.8251C8.72702 15.0439 9.02376 15.1668 9.33318 15.1668H13.9999C14.3093 15.1668 14.606 15.0439 14.8248 14.8251C15.0436 14.6063 15.1665 14.3096 15.1665 14.0001ZM26.8332 2.33347C26.5238 2.33347 26.227 2.45639 26.0082 2.67518C25.7894 2.89397 25.6665 3.19072 25.6665 3.50014V6.2698C24.4509 4.43531 22.82 2.91321 20.906 1.82702C18.9921 0.740837 16.849 0.12115 14.6507 0.0182452C12.4525 -0.0846596 10.2609 0.332116 8.25382 1.23476C6.24676 2.1374 4.48077 3.50047 3.09912 5.21339C1.71748 6.92631 0.759099 8.94082 0.301753 11.0935C-0.155593 13.2461 -0.0990255 15.4762 0.466866 17.6029C1.03276 19.7296 2.09203 21.6929 3.55874 23.3336C5.02545 24.9743 6.85828 26.2461 8.90852 27.0458C9.04401 27.0981 9.18796 27.125 9.33318 27.1251C9.60544 27.1256 9.86926 27.0308 10.079 26.8571C10.2887 26.6835 10.4311 26.442 10.4815 26.1745C10.5319 25.9069 10.4871 25.6302 10.355 25.3922C10.2228 25.1541 10.0116 24.9698 9.75785 24.8711C8.01721 24.1981 6.46344 23.1172 5.22696 21.7194C3.99049 20.3216 3.10739 18.6475 2.65181 16.8377C2.19623 15.0279 2.18145 13.1353 2.60872 11.3186C3.03599 9.50193 3.89284 7.81427 5.10734 6.39729C6.32184 4.98031 7.85854 3.87536 9.58846 3.17519C11.3184 2.47502 13.191 2.20008 15.0492 2.37342C16.9074 2.54677 18.6968 3.16336 20.2674 4.17143C21.8379 5.1795 23.1437 6.54963 24.0752 8.1668H20.9999C20.6904 8.1668 20.3937 8.28972 20.1749 8.50851C19.9561 8.72731 19.8332 9.02405 19.8332 9.33347C19.8332 9.64289 19.9561 9.93964 20.1749 10.1584C20.3937 10.3772 20.6904 10.5001 20.9999 10.5001H24.4999C25.4281 10.5001 26.3183 10.1314 26.9747 9.47501C27.6311 8.81863 27.9999 7.9284 27.9999 7.00014V3.50014C27.9999 3.19072 27.8769 2.89397 27.6581 2.67518C27.4394 2.45639 27.1426 2.33347 26.8332 2.33347Z" fill="#EC3848"/>
</svg>