<svg xmlns="http://www.w3.org/2000/svg" width="14" height="8" viewBox="0 0 14 8" fill="none">
  <path d="M13.4867 2.45338L11.2292 0.172549C11.1749 0.117874 11.1104 0.0744773 11.0393 0.0448622C10.9683 0.0152472 10.892 0 10.815 0C10.738 0 10.6617 0.0152472 10.5907 0.0448622C10.5196 0.0744773 10.4551 0.117874 10.4008 0.172549C10.2922 0.281844 10.2312 0.429691 10.2312 0.583799C10.2312 0.737907 10.2922 0.885754 10.4008 0.995049L12.4775 3.08922H0.583333C0.428624 3.08922 0.280251 3.15067 0.170854 3.26007C0.0614582 3.36947 0 3.51784 0 3.67255C0 3.82726 0.0614582 3.97563 0.170854 4.08503C0.280251 4.19442 0.428624 4.25588 0.583333 4.25588H12.5125L10.4008 6.36172C10.3462 6.41595 10.3028 6.48046 10.2731 6.55155C10.2435 6.62263 10.2283 6.69888 10.2283 6.77588C10.2283 6.85289 10.2435 6.92913 10.2731 7.00022C10.3028 7.0713 10.3462 7.13582 10.4008 7.19005C10.4551 7.24472 10.5196 7.28812 10.5907 7.31774C10.6617 7.34735 10.738 7.3626 10.815 7.3626C10.892 7.3626 10.9683 7.34735 11.0393 7.31774C11.1104 7.28812 11.1749 7.24472 11.2292 7.19005L13.4867 4.92672C13.8144 4.59859 13.9985 4.1538 13.9985 3.69005C13.9985 3.2263 13.8144 2.78151 13.4867 2.45338Z" fill="#EC3848"/>
</svg>