<svg xmlns="http://www.w3.org/2000/svg" width="60" height="60" viewBox="0 0 60 60" fill="none">
  <rect width="60" height="60" fill="#EC3848"/>
  <path d="M40.0003 25.1999C40.0003 31.5666 31.5586 39.9999 25.2003 39.9999C23.8086 39.9999 22.5086 39.4749 21.5503 38.5166L20.7169 37.5582C19.7503 36.5916 19.7503 34.9582 20.7586 33.9499C20.7836 33.9249 22.7919 32.3832 22.7919 32.3832C23.7919 31.4332 25.3669 31.4332 26.3586 32.3832L27.5753 33.3582C30.2419 32.2249 32.1336 30.3249 33.3503 27.5666L32.3836 26.3499C31.4253 25.3582 31.4253 23.7749 32.3836 22.7832C32.3836 22.7832 33.9253 20.7749 33.9503 20.7499C34.9586 19.7416 36.5919 19.7416 37.6003 20.7499L38.4753 21.5082C39.4753 22.4999 40.0003 23.7999 40.0003 25.1916V25.1999Z" fill="white"/>
</svg>