<svg xmlns="http://www.w3.org/2000/svg" width="60" height="60" viewBox="0 0 60 60" fill="none">
  <rect width="60" height="60" fill="#EC3848"/>
  <path d="M30 18C27.6266 18 25.3066 18.7038 23.3332 20.0224C21.3598 21.3409 19.8217 23.2151 18.9135 25.4078C18.0052 27.6005 17.7676 30.0133 18.2306 32.3411C18.6936 34.6689 19.8365 36.8071 21.5147 38.4853C23.193 40.1635 25.3312 41.3064 27.6589 41.7694C29.9867 42.2324 32.3995 41.9948 34.5922 41.0866C36.7849 40.1783 38.6591 38.6402 39.9776 36.6668C41.2962 34.6935 42 32.3734 42 30C41.9966 26.8185 40.7312 23.7682 38.4815 21.5185C36.2318 19.2688 33.1815 18.0034 30 18ZM30 40C28.0222 40 26.0888 39.4135 24.4443 38.3147C22.7998 37.2159 21.5181 35.6541 20.7612 33.8268C20.0043 31.9996 19.8063 29.9889 20.1922 28.0491C20.578 26.1093 21.5304 24.3275 22.9289 22.9289C24.3275 21.5304 26.1093 20.578 28.0491 20.1921C29.9889 19.8063 31.9996 20.0043 33.8268 20.7612C35.6541 21.5181 37.2159 22.7998 38.3147 24.4443C39.4135 26.0888 40 28.0222 40 30C39.9971 32.6513 38.9426 35.1931 37.0679 37.0679C35.1931 38.9426 32.6513 39.9971 30 40Z" fill="white"/>
  <path d="M30.0004 24C29.7352 24 29.4809 24.1054 29.2933 24.2929C29.1058 24.4804 29.0004 24.7348 29.0004 25V29.325L25.6294 31.437C25.404 31.5778 25.2437 31.8024 25.1839 32.0614C25.1241 32.3204 25.1696 32.5926 25.3104 32.818C25.4513 33.0434 25.6759 33.2037 25.9349 33.2635C26.1939 33.3233 26.466 33.2778 26.6914 33.137L30.5314 30.737C30.6765 30.6461 30.7958 30.5195 30.878 30.3692C30.9601 30.219 31.0022 30.0502 31.0004 29.879V25C31.0004 24.7348 30.8951 24.4804 30.7075 24.2929C30.52 24.1054 30.2657 24 30.0004 24Z" fill="white"/>
</svg>