<svg xmlns="http://www.w3.org/2000/svg" width="14" height="14" viewBox="0 0 14 14" fill="none">
  <path d="M7.87444 6.99921C7.87444 7.48221 7.48244 7.87421 6.99944 7.87421C6.51644 7.87421 6.12444 7.48221 6.12444 6.99921C6.12444 6.51621 6.51644 6.12421 6.99944 6.12421C7.48244 6.12421 7.87444 6.51621 7.87444 6.99921ZM9.9161 6.12421C9.4331 6.12421 9.0411 6.51621 9.0411 6.99921C9.0411 7.48221 9.4331 7.87421 9.9161 7.87421C10.3991 7.87421 10.7911 7.48221 10.7911 6.99921C10.7911 6.51621 10.3991 6.12421 9.9161 6.12421ZM4.08277 6.12421C3.59977 6.12421 3.20777 6.51621 3.20777 6.99921C3.20777 7.48221 3.59977 7.87421 4.08277 7.87421C4.56577 7.87421 4.95777 7.48221 4.95777 6.99921C4.95777 6.51621 4.56577 6.12421 4.08277 6.12421ZM13.9994 7.19754V11.0825C13.9994 12.6908 12.691 13.9992 11.0828 13.9992H7.63119C3.54727 13.9992 0.273604 11.2039 0.0169371 7.49737C-0.123646 5.46971 0.616021 3.48521 2.04635 2.05312C3.47669 0.62104 5.46119 -0.12096 7.4871 0.0161232C11.1388 0.26404 13.9994 3.41812 13.9994 7.19754ZM12.8328 7.19754C12.8328 4.02946 10.4504 1.38637 7.40835 1.17987C7.27477 1.17054 7.14119 1.16646 7.00819 1.16646C5.45885 1.16646 3.9696 1.77779 2.87177 2.87737C1.67944 4.07087 1.06285 5.72579 1.18069 7.41687C1.39827 10.5552 4.11135 12.8331 7.63177 12.8331H11.0834C12.0482 12.8331 12.8334 12.048 12.8334 11.0831V7.19812L12.8328 7.19754Z" fill="#757588"/>
</svg>