<svg xmlns="http://www.w3.org/2000/svg" width="24" height="24" viewBox="0 0 24 24" fill="none">
  <path d="M2 12C2 12.552 1.552 13 1 13C0.448 13 0 12.552 0 12C0 5.383 5.383 0 12 0C14.987 0 17.812 1.113 20 3.077V1C20 0.448 20.447 0 21 0C21.553 0 22 0.448 22 1V4.5C22 5.878 20.879 7 19.5 7H16C15.447 7 15 6.552 15 6C15 5.448 15.447 5 16 5H19.126C17.251 3.089 14.703 2 12 2C6.486 2 2 6.486 2 12ZM23 11C22.447 11 22 11.448 22 12C22 17.514 17.514 22 12 22C9.297 22 6.749 20.911 4.873 19H8C8.552 19 9 18.552 9 18C9 17.448 8.552 17 8 17H4.5C3.122 17 2 18.122 2 19.5V23C2 23.552 2.448 24 3 24C3.552 24 4 23.552 4 23V20.923C6.187 22.887 9.013 24 12 24C18.617 24 24 18.617 24 12C24 11.448 23.553 11 23 11ZM17.696 9.866L16.722 10.428C16.888 10.925 17 11.447 17 12C17 12.553 16.889 13.075 16.722 13.572L17.696 14.134C18.175 14.41 18.339 15.022 18.062 15.5C17.876 15.821 17.541 16 17.195 16C17.025 16 16.853 15.957 16.696 15.866L15.723 15.304C15.018 16.098 14.079 16.679 13 16.898V17.999C13 18.551 12.552 18.999 12 18.999C11.448 18.999 11 18.551 11 17.999V16.898C9.921 16.678 8.982 16.097 8.277 15.304L7.304 15.866C7.146 15.957 6.974 16 6.805 16C6.459 16 6.123 15.821 5.938 15.5C5.662 15.021 5.826 14.41 6.304 14.134L7.278 13.572C7.112 13.075 7 12.553 7 12C7 11.447 7.111 10.925 7.278 10.428L6.304 9.866C5.826 9.59 5.662 8.978 5.938 8.5C6.214 8.021 6.824 7.857 7.304 8.134L8.277 8.696C8.982 7.902 9.921 7.321 11 7.102V6.001C11 5.449 11.448 5.001 12 5.001C12.552 5.001 13 5.449 13 6.001V7.102C14.079 7.322 15.018 7.903 15.723 8.696L16.696 8.134C17.173 7.857 17.785 8.021 18.062 8.5C18.338 8.979 18.174 9.59 17.696 9.866ZM15 12C15 10.346 13.654 9 12 9C10.346 9 9 10.346 9 12C9 13.654 10.346 15 12 15C13.654 15 15 13.654 15 12Z" fill="#171717"/>
</svg>