<svg xmlns="http://www.w3.org/2000/svg" width="28" height="28" viewBox="0 0 28 28" fill="none">
  <path d="M1.06211 7.03094C0.293624 6.14288 -0.0684978 5.05294 0.0106799 3.92566C0.091022 2.79721 0.603348 1.77029 1.45451 1.03161C2.30683 0.291755 3.38738 -0.0676681 4.51915 0.0105181C5.64278 0.0910382 6.66859 0.604499 7.40564 1.45755L11.8804 6.79521L10.2281 8.45112L5.63463 2.97109C5.31675 2.6035 4.85799 2.37361 4.35381 2.3386C3.84381 2.30592 3.3606 2.46346 2.98101 2.79371C2.59909 3.12513 2.36971 3.58608 2.33361 4.0902C2.29752 4.59666 2.45937 5.08445 2.78889 5.46488L7.83996 10.8434L6.19353 12.4935L1.06211 7.03094ZM28 28H20.6039C18.0795 28 15.1453 25.7058 15.1453 22.7487C15.1453 20.0005 17.6429 17.4974 20.385 17.4974C25.3638 17.4974 26.9556 23.8398 27.6355 26.5483L28 28ZM24.9878 25.6661C24.0958 22.5888 22.7976 19.8313 20.385 19.8313C19.0669 19.8313 17.474 21.1325 17.474 22.7487C17.474 24.2926 19.2241 25.6661 20.6039 25.6661H24.9878ZM26.7192 7.20948L5.97346 28H0.00835112V22.0205L20.7529 1.22999C22.3446 -0.365242 25.1286 -0.364076 26.718 1.22999H26.7192C27.5145 2.02935 27.9523 3.09012 27.9523 4.21973C27.9523 5.34935 27.5145 6.41245 26.7169 7.20948H26.7192ZM20.4292 10.2121L17.7558 7.53273L2.33711 22.9879V25.6661H5.00936L20.428 10.2132L20.4292 10.2121ZM25.6247 4.21973C25.6247 3.71327 25.4291 3.23716 25.0728 2.88007C24.3602 2.16706 23.1119 2.16706 22.4005 2.88007L19.4034 5.88382L22.0768 8.56315L25.0739 5.5594C25.4302 5.20231 25.6258 4.72736 25.6258 4.2209L25.6247 4.21973Z" fill="#EC3848"/>
</svg>