<svg xmlns="http://www.w3.org/2000/svg" width="21" height="20" viewBox="0 0 21 20" fill="none">
  <path d="M10.0078 4.69111C7.16853 4.69111 4.87835 6.89541 4.87835 9.62822C4.87835 12.361 7.16853 14.5653 10.0078 14.5653C12.8471 14.5653 15.1373 12.361 15.1373 9.62822C15.1373 6.89541 12.8471 4.69111 10.0078 4.69111ZM10.0078 12.838C8.17299 12.838 6.67299 11.3985 6.67299 9.62822C6.67299 7.85791 8.16853 6.41846 10.0078 6.41846C11.8471 6.41846 13.3426 7.85791 13.3426 9.62822C13.3426 11.3985 11.8426 12.838 10.0078 12.838ZM16.5435 4.48916C16.5435 5.12939 16.0078 5.64072 15.3471 5.64072C14.6819 5.64072 14.1507 5.1251 14.1507 4.48916C14.1507 3.85322 14.6864 3.3376 15.3471 3.3376C16.0078 3.3376 16.5435 3.85322 16.5435 4.48916ZM19.9408 5.65791C19.865 4.11533 19.4989 2.74893 18.3248 1.62314C17.1551 0.497363 15.7355 0.14502 14.1328 0.0676758C12.481 -0.0225586 7.53013 -0.0225586 5.87835 0.0676758C4.28013 0.140723 2.86049 0.493066 1.68638 1.61885C0.512277 2.74463 0.15067 4.11103 0.0703125 5.65361C-0.0234375 7.24346 -0.0234375 12.0087 0.0703125 13.5985C0.146205 15.1411 0.512277 16.5075 1.68638 17.6333C2.86049 18.7591 4.27567 19.1114 5.87835 19.1888C7.53013 19.279 12.481 19.279 14.1328 19.1888C15.7355 19.1157 17.1551 18.7634 18.3248 17.6333C19.4944 16.5075 19.8605 15.1411 19.9408 13.5985C20.0346 12.0087 20.0346 7.24775 19.9408 5.65791ZM17.8069 15.3044C17.4587 16.1466 16.7846 16.7954 15.9051 17.1349C14.5882 17.6376 11.4632 17.5216 10.0078 17.5216C8.55245 17.5216 5.42299 17.6333 4.11049 17.1349C3.23549 16.7997 2.56138 16.1509 2.20871 15.3044C1.68638 14.0368 1.80692 11.029 1.80692 9.62822C1.80692 8.22744 1.69085 5.21533 2.20871 3.95205C2.55692 3.10986 3.23103 2.46104 4.11049 2.12158C5.42745 1.61885 8.55245 1.73486 10.0078 1.73486C11.4632 1.73486 14.5926 1.62314 15.9051 2.12158C16.7801 2.45674 17.4542 3.10557 17.8069 3.95205C18.3292 5.21963 18.2087 8.22744 18.2087 9.62822C18.2087 11.029 18.3292 14.0411 17.8069 15.3044Z" fill="#171717"/>
</svg>