<svg xmlns="http://www.w3.org/2000/svg" width="60" height="60" viewBox="0 0 60 60" fill="none">
  <rect width="60" height="60" fill="#EC3848"/>
  <path d="M36.4167 20H23.5833C22.3682 20.0015 21.2033 20.4848 20.344 21.344C19.4848 22.2033 19.0015 23.3682 19 24.5833V35.5833C19.0015 36.7985 19.4848 37.9634 20.344 38.8226C21.2033 39.6819 22.3682 40.1652 23.5833 40.1667H36.4167C37.6318 40.1652 38.7967 39.6819 39.656 38.8226C40.5152 37.9634 40.9985 36.7985 41 35.5833V24.5833C40.9985 23.3682 40.5152 22.2033 39.656 21.344C38.7967 20.4848 37.6318 20.0015 36.4167 20ZM23.5833 21.8333H36.4167C36.9656 21.8344 37.5016 21.9997 37.9557 22.308C38.4099 22.6163 38.7614 23.0534 38.965 23.5631L31.9452 30.5838C31.4286 31.0984 30.7291 31.3873 30 31.3873C29.2709 31.3873 28.5714 31.0984 28.0548 30.5838L21.035 23.5631C21.2386 23.0534 21.5901 22.6163 22.0443 22.308C22.4984 21.9997 23.0344 21.8344 23.5833 21.8333ZM36.4167 38.3333H23.5833C22.854 38.3333 22.1545 38.0436 21.6388 37.5279C21.1231 37.0122 20.8333 36.3127 20.8333 35.5833V25.9583L26.7587 31.88C27.6191 32.7382 28.7847 33.2202 30 33.2202C31.2153 33.2202 32.3809 32.7382 33.2413 31.88L39.1667 25.9583V35.5833C39.1667 36.3127 38.8769 37.0122 38.3612 37.5279C37.8455 38.0436 37.146 38.3333 36.4167 38.3333Z" fill="white"/>
</svg>