<svg xmlns="http://www.w3.org/2000/svg" width="50" height="50" viewBox="0 0 50 50" fill="none">
  <rect width="50" height="50" fill="white"/>
  <path d="M30.4321 21.9718L23.1079 16.7247C22.5358 16.3154 21.8589 16.0689 21.1522 16.0125C20.4456 15.956 19.7367 16.0919 19.1042 16.405C18.4717 16.7181 17.9403 17.1962 17.5689 17.7862C17.1975 18.3763 17.0006 19.0554 17 19.7481V30.2475C16.9989 30.9409 17.1948 31.621 17.5658 32.2121C17.9369 32.8032 18.4686 33.2821 19.1017 33.5955C19.7348 33.9089 20.4445 34.0445 21.1518 33.9872C21.8591 33.9299 22.5363 33.6819 23.1079 33.271L30.4321 28.0239C30.9181 27.6754 31.3133 27.2201 31.5857 26.6947C31.8581 26.1693 32 25.5886 32 24.9997C32 24.4107 31.8581 23.8301 31.5857 23.3047C31.3133 22.7793 30.9181 22.324 30.4321 21.9755V21.9718Z" fill="#171717"/>
</svg>