<svg xmlns="http://www.w3.org/2000/svg" width="18" height="17" viewBox="0 0 18 17" fill="none">
  <path d="M16.0833 7.08333H10.4167V1.41667C10.4167 1.04094 10.2674 0.680609 10.0017 0.414932C9.73606 0.149256 9.37572 0 9 0C8.62428 0 8.26394 0.149256 7.99827 0.414932C7.73259 0.680609 7.58333 1.04094 7.58333 1.41667V7.08333H1.91667C1.54094 7.08333 1.18061 7.23259 0.914932 7.49827C0.649256 7.76394 0.5 8.12428 0.5 8.5C0.5 8.87572 0.649256 9.23606 0.914932 9.50173C1.18061 9.76741 1.54094 9.91667 1.91667 9.91667H7.58333V15.5833C7.58333 15.9591 7.73259 16.3194 7.99827 16.5851C8.26394 16.8507 8.62428 17 9 17C9.37572 17 9.73606 16.8507 10.0017 16.5851C10.2674 16.3194 10.4167 15.9591 10.4167 15.5833V9.91667H16.0833C16.4591 9.91667 16.8194 9.76741 17.0851 9.50173C17.3507 9.23606 17.5 8.87572 17.5 8.5C17.5 8.12428 17.3507 7.76394 17.0851 7.49827C16.8194 7.23259 16.4591 7.08333 16.0833 7.08333Z" fill="#171717"/>
</svg>