<svg width="36" height="36" viewBox="0 0 36 36" fill="none" xmlns="http://www.w3.org/2000/svg">
<path d="M3 18C3 18.828 2.328 19.5 1.5 19.5C0.672 19.5 0 18.828 0 18C0 8.0745 8.0745 0 18 0C22.4805 0 26.718 1.6695 30 4.6155V1.5C30 0.672 30.6705 0 31.5 0C32.3295 0 33 0.672 33 1.5V6.75C33 8.817 31.3185 10.5 29.25 10.5H24C23.1705 10.5 22.5 9.828 22.5 9C22.5 8.172 23.1705 7.5 24 7.5H28.689C25.8765 4.6335 22.0545 3 18 3C9.729 3 3 9.729 3 18ZM34.5 16.5C33.6705 16.5 33 17.172 33 18C33 26.271 26.271 33 18 33C13.9455 33 10.1235 31.3665 7.3095 28.5H12C12.828 28.5 13.5 27.828 13.5 27C13.5 26.172 12.828 25.5 12 25.5H6.75C4.683 25.5 3 27.183 3 29.25V34.5C3 35.328 3.672 36 4.5 36C5.328 36 6 35.328 6 34.5V31.3845C9.2805 34.3305 13.5195 36 18 36C27.9255 36 36 27.9255 36 18C36 17.172 35.3295 16.5 34.5 16.5ZM26.544 14.799L25.083 15.642C25.332 16.3875 25.5 17.1705 25.5 18C25.5 18.8295 25.3335 19.6125 25.083 20.358L26.544 21.201C27.2625 21.615 27.5085 22.533 27.093 23.25C26.814 23.7315 26.3115 24 25.7925 24C25.5375 24 25.2795 23.9355 25.044 23.799L23.5845 22.956C22.527 24.147 21.1185 25.0185 19.5 25.347V26.9985C19.5 27.8265 18.828 28.4985 18 28.4985C17.172 28.4985 16.5 27.8265 16.5 26.9985V25.347C14.8815 25.017 13.473 24.1455 12.4155 22.956L10.956 23.799C10.719 23.9355 10.461 24 10.2075 24C9.6885 24 9.1845 23.7315 8.907 23.25C8.493 22.5315 8.739 21.615 9.456 21.201L10.917 20.358C10.668 19.6125 10.5 18.8295 10.5 18C10.5 17.1705 10.6665 16.3875 10.917 15.642L9.456 14.799C8.739 14.385 8.493 13.467 8.907 12.75C9.321 12.0315 10.236 11.7855 10.956 12.201L12.4155 13.044C13.473 11.853 14.8815 10.9815 16.5 10.653V9.0015C16.5 8.1735 17.172 7.5015 18 7.5015C18.828 7.5015 19.5 8.1735 19.5 9.0015V10.653C21.1185 10.983 22.527 11.8545 23.5845 13.044L25.044 12.201C25.7595 11.7855 26.6775 12.0315 27.093 12.75C27.507 13.4685 27.261 14.385 26.544 14.799ZM22.5 18C22.5 15.519 20.481 13.5 18 13.5C15.519 13.5 13.5 15.519 13.5 18C13.5 20.481 15.519 22.5 18 22.5C20.481 22.5 22.5 20.481 22.5 18Z" fill="#171717"/>
</svg>
