<svg xmlns="http://www.w3.org/2000/svg" width="28" height="28" viewBox="0 0 28 28" fill="none">
  <path d="M22.1667 17.5H21C20.3548 17.5 19.8333 16.9785 19.8333 16.3333C19.8333 15.6882 20.3548 15.1667 21 15.1667H22.1667C22.8118 15.1667 23.3333 15.6882 23.3333 16.3333C23.3333 16.9785 22.8118 17.5 22.1667 17.5ZM23.3333 21C23.3333 20.3548 22.8118 19.8333 22.1667 19.8333H21C20.3548 19.8333 19.8333 20.3548 19.8333 21C19.8333 21.6452 20.3548 22.1667 21 22.1667H22.1667C22.8118 22.1667 23.3333 21.6452 23.3333 21ZM18.6667 7C18.6667 6.35483 18.1452 5.83333 17.5 5.83333H16.3333C15.6882 5.83333 15.1667 6.35483 15.1667 7C15.1667 7.64517 15.6882 8.16667 16.3333 8.16667H17.5C18.1452 8.16667 18.6667 7.64517 18.6667 7ZM23.3333 7C23.3333 6.35483 22.8118 5.83333 22.1667 5.83333H21C20.3548 5.83333 19.8333 6.35483 19.8333 7C19.8333 7.64517 20.3548 8.16667 21 8.16667H22.1667C22.8118 8.16667 23.3333 7.64517 23.3333 7ZM23.3333 11.6667C23.3333 11.0215 22.8118 10.5 22.1667 10.5H21C20.3548 10.5 19.8333 11.0215 19.8333 11.6667C19.8333 12.3118 20.3548 12.8333 21 12.8333H22.1667C22.8118 12.8333 23.3333 12.3118 23.3333 11.6667ZM28 22.1667V5.83333C28 2.61683 25.3832 0 22.1667 0H16.3333C13.1168 0 10.5 2.61683 10.5 5.83333C10.5 6.4785 11.0215 7 11.6667 7C12.3118 7 12.8333 6.4785 12.8333 5.83333C12.8333 3.90367 14.4037 2.33333 16.3333 2.33333H22.1667C24.0963 2.33333 25.6667 3.90367 25.6667 5.83333V22.1667C25.6667 24.0963 24.0963 25.6667 22.1667 25.6667H21C20.3548 25.6667 19.8333 26.1882 19.8333 26.8333C19.8333 27.4785 20.3548 28 21 28H22.1667C25.3832 28 28 25.3832 28 22.1667ZM18.6667 22.75V17.906C18.6667 16.1 17.8512 14.427 16.4278 13.3117L12.9278 10.5712C10.8115 8.91683 7.85517 8.91567 5.73883 10.5712L2.23883 13.3105C0.8155 14.4247 0 16.0988 0 17.9048V22.7488C0 25.6433 2.3555 27.9988 5.25 27.9988H13.4167C16.3112 27.9988 18.6667 25.6445 18.6667 22.75ZM11.4905 12.4098L14.9905 15.1492C15.8433 15.8177 16.3333 16.8233 16.3333 17.906V22.75C16.3333 24.3588 15.0255 25.6667 13.4167 25.6667H5.25C3.64117 25.6667 2.33333 24.3588 2.33333 22.75V17.906C2.33333 16.8222 2.82333 15.8177 3.67617 15.1492L7.17617 12.411C7.81083 11.914 8.5715 11.6655 9.33333 11.6655C10.0952 11.6655 10.8558 11.914 11.4905 12.4098ZM11.6667 21V18.6667C11.6667 18.0227 11.144 17.5 10.5 17.5H8.16667C7.52267 17.5 7 18.0227 7 18.6667V21C7 21.644 7.52267 22.1667 8.16667 22.1667H10.5C11.144 22.1667 11.6667 21.644 11.6667 21Z" fill="#EC3848"/>
</svg>