<svg xmlns="http://www.w3.org/2000/svg" width="28" height="28" viewBox="0 0 28 28" fill="none">
  <path d="M21.5833 28.0035H6.41667C2.87933 28.0035 0 25.1242 0 21.5868V11.5372C0 9.40215 1.057 7.41415 2.828 6.21832L10.4113 1.10132C12.5895 -0.371013 15.4093 -0.371013 17.5898 1.10132L25.172 6.21832C26.943 7.41299 28 9.40215 28 11.5372V21.5868C28 25.1242 25.1207 28.0035 21.5833 28.0035ZM14 3.49999C13.433 3.49999 12.8637 3.66799 12.3702 4.00282L4.78567 9.11865C3.98183 9.66232 3.5 10.5653 3.5 11.536V21.5857C3.5 23.1945 4.80783 24.5023 6.41667 24.5023H21.5833C23.1922 24.5023 24.5 23.1945 24.5 21.5857V11.5372C24.5 10.5665 24.0193 9.66349 23.2143 9.11982L15.631 4.00282C15.1352 3.66799 14.567 3.49999 14 3.49999Z" fill="#171717"/>
</svg>