<svg xmlns="http://www.w3.org/2000/svg" width="50" height="50" viewBox="0 0 50 50" fill="none">
  <rect width="50" height="50" fill="#EC3848"/>
  <path d="M13.842 27.4134C13.0101 27.0267 12.5029 26.1845 12.5511 25.2677C12.5999 24.3537 13.1879 23.5706 14.0525 23.2717L29.2759 17.7375C30.0929 17.4414 30.9667 17.5189 31.6959 17.9256L20.2488 29.3727L13.9475 27.4536C13.912 27.4421 13.8764 27.4284 13.842 27.4134ZM21.4049 30.5127L23.3682 36.7825C23.3791 36.8175 23.3917 36.8507 23.4072 36.8834C23.7951 37.7153 24.6379 38.2197 25.5541 38.1709C26.121 38.1399 26.6368 37.9007 27.0166 37.5209C27.2512 37.2862 27.4337 36.9982 27.5455 36.6717L33.0379 21.4971C33.3345 20.6773 33.2547 19.8023 32.8457 19.0731L21.4055 30.5133L21.4049 30.5127Z" fill="white"/>
</svg>