<svg width="32" height="32" viewBox="0 0 32 32" fill="none" xmlns="http://www.w3.org/2000/svg">
<path d="M26 0H20C18.5293 0 17.3333 1.196 17.3333 2.66667V8C17.3333 9.47067 18.5293 10.6667 20 10.6667H29.3333C30.804 10.6667 32 9.47067 32 8V6C32 2.692 29.308 0 26 0ZM20 8V2.66667H26C27.8387 2.66667 29.3333 4.16267 29.3333 6V8H20ZM29.3333 13.3333H10.6667V8C10.6667 6.52933 9.47067 5.33333 8 5.33333H6C2.692 5.33333 0 8.02533 0 11.3333V26C0 29.308 2.692 32 6 32H26C29.308 32 32 29.308 32 26V16C32 14.5293 30.804 13.3333 29.3333 13.3333ZM29.3333 21.3333H17.3333V16H29.3333V21.3333ZM21.3333 24V29.3333H10.6667V24H21.3333ZM2.66667 11.3333C2.66667 9.496 4.16133 8 6 8H8V13.3333H2.66667V11.3333ZM14.6667 16V21.3333H2.66667V16H14.6667ZM2.66667 26V24H8V29.3333H6C4.16133 29.3333 2.66667 27.8373 2.66667 26ZM26 29.3333H24V24H29.3333V26C29.3333 27.8373 27.8387 29.3333 26 29.3333Z" fill="#EC3848"/>
</svg>
