<svg xmlns="http://www.w3.org/2000/svg" width="20" height="20" viewBox="0 0 20 20" fill="none">
  <path d="M1.66667 10C1.66667 10.46 1.29333 10.8333 0.833333 10.8333C0.373333 10.8333 0 10.46 0 10C0 4.48583 4.48583 0 10 0C12.4892 0 14.8433 0.9275 16.6667 2.56417V0.833333C16.6667 0.373333 17.0392 0 17.5 0C17.9608 0 18.3333 0.373333 18.3333 0.833333V3.75C18.3333 4.89833 17.3992 5.83333 16.25 5.83333H13.3333C12.8725 5.83333 12.5 5.46 12.5 5C12.5 4.54 12.8725 4.16667 13.3333 4.16667H15.9383C14.3758 2.57417 12.2525 1.66667 10 1.66667C5.405 1.66667 1.66667 5.405 1.66667 10ZM19.1667 9.16667C18.7058 9.16667 18.3333 9.54 18.3333 10C18.3333 14.595 14.595 18.3333 10 18.3333C7.7475 18.3333 5.62417 17.4258 4.06083 15.8333H6.66667C7.12667 15.8333 7.5 15.46 7.5 15C7.5 14.54 7.12667 14.1667 6.66667 14.1667H3.75C2.60167 14.1667 1.66667 15.1017 1.66667 16.25V19.1667C1.66667 19.6267 2.04 20 2.5 20C2.96 20 3.33333 19.6267 3.33333 19.1667V17.4358C5.15583 19.0725 7.51083 20 10 20C15.5142 20 20 15.5142 20 10C20 9.54 19.6275 9.16667 19.1667 9.16667ZM14.7467 8.22167L13.935 8.69C14.0733 9.10417 14.1667 9.53917 14.1667 10C14.1667 10.4608 14.0742 10.8958 13.935 11.31L14.7467 11.7783C15.1458 12.0083 15.2825 12.5183 15.0517 12.9167C14.8967 13.1842 14.6175 13.3333 14.3292 13.3333C14.1875 13.3333 14.0442 13.2975 13.9133 13.2217L13.1025 12.7533C12.515 13.415 11.7325 13.8992 10.8333 14.0817V14.9992C10.8333 15.4592 10.46 15.8325 10 15.8325C9.54 15.8325 9.16667 15.4592 9.16667 14.9992V14.0817C8.2675 13.8983 7.485 13.4142 6.8975 12.7533L6.08667 13.2217C5.955 13.2975 5.81167 13.3333 5.67083 13.3333C5.3825 13.3333 5.1025 13.1842 4.94833 12.9167C4.71833 12.5175 4.855 12.0083 5.25333 11.7783L6.065 11.31C5.92667 10.8958 5.83333 10.4608 5.83333 10C5.83333 9.53917 5.92583 9.10417 6.065 8.69L5.25333 8.22167C4.855 7.99167 4.71833 7.48167 4.94833 7.08333C5.17833 6.68417 5.68667 6.5475 6.08667 6.77833L6.8975 7.24667C7.485 6.585 8.2675 6.10083 9.16667 5.91833V5.00083C9.16667 4.54083 9.54 4.1675 10 4.1675C10.46 4.1675 10.8333 4.54083 10.8333 5.00083V5.91833C11.7325 6.10167 12.515 6.58583 13.1025 7.24667L13.9133 6.77833C14.3108 6.5475 14.8208 6.68417 15.0517 7.08333C15.2817 7.4825 15.145 7.99167 14.7467 8.22167ZM12.5 10C12.5 8.62167 11.3783 7.5 10 7.5C8.62167 7.5 7.5 8.62167 7.5 10C7.5 11.3783 8.62167 12.5 10 12.5C11.3783 12.5 12.5 11.3783 12.5 10Z" fill="white"/>
</svg>