<svg width="28" height="14" viewBox="0 0 28 14" fill="none" xmlns="http://www.w3.org/2000/svg">
<path d="M1.0237 4.66511L5.5392 0.328102C5.64766 0.224138 5.77671 0.141619 5.9189 0.0853057C6.06108 0.0289925 6.21359 0 6.36762 0C6.52165 0 6.67416 0.0289925 6.81634 0.0853057C6.95853 0.141619 7.08758 0.224138 7.19604 0.328102C7.41336 0.535927 7.53534 0.817058 7.53534 1.1101C7.53534 1.40313 7.41336 1.68426 7.19604 1.89209L3.04226 5.87415H26.8332C27.1427 5.87415 27.4394 5.99101 27.6583 6.19903C27.8771 6.40705 28 6.68918 28 6.98336C28 7.27754 27.8771 7.55967 27.6583 7.76769C27.4394 7.97571 27.1427 8.09257 26.8332 8.09257H2.97225L7.19604 12.0968C7.30541 12.1999 7.39221 12.3226 7.45145 12.4578C7.51068 12.5929 7.54118 12.7379 7.54118 12.8844C7.54118 13.0308 7.51068 13.1758 7.45145 13.3109C7.39221 13.4461 7.30541 13.5688 7.19604 13.6719C7.08758 13.7759 6.95853 13.8584 6.81634 13.9147C6.67416 13.971 6.52165 14 6.36762 14C6.21359 14 6.06108 13.971 5.9189 13.9147C5.77671 13.8584 5.64766 13.7759 5.5392 13.6719L1.0237 9.36816C0.368191 8.74423 -2.96972e-07 7.89846 -2.96972e-07 7.01664C-2.96972e-07 6.13481 0.368191 5.28905 1.0237 4.66511Z" fill="#EC3848"/>
</svg>
