<svg xmlns="http://www.w3.org/2000/svg" width="10" height="20" viewBox="0 0 10 20" fill="none">
  <path d="M6.66778 0.731214L9.76564 3.95657C9.8399 4.03405 9.89884 4.12623 9.93907 4.22779C9.97929 4.32935 10 4.43828 10 4.5483C10 4.65832 9.97929 4.76726 9.93907 4.86882C9.89884 4.97038 9.8399 5.06256 9.76564 5.14003C9.6172 5.29526 9.41639 5.38239 9.20707 5.38239C8.99776 5.38239 8.79695 5.29526 8.64851 5.14003L5.80418 2.17304L5.80418 19.1666C5.80418 19.3876 5.7207 19.5996 5.57212 19.7559C5.42354 19.9122 5.22201 20 5.01188 20C4.80175 20 4.60023 19.9122 4.45165 19.7559C4.30306 19.5996 4.21959 19.3876 4.21959 19.1666L4.21959 2.12303L1.35941 5.14003C1.28576 5.21815 1.19813 5.28015 1.10158 5.32246C1.00504 5.36477 0.901479 5.38656 0.796887 5.38656C0.692294 5.38656 0.588738 5.36477 0.49219 5.32246C0.395641 5.28015 0.308012 5.21815 0.234358 5.14003C0.160097 5.06256 0.101155 4.97038 0.0609323 4.86882C0.0207083 4.76726 1.82948e-07 4.65832 1.8426e-07 4.5483C1.85572e-07 4.43828 0.0207083 4.32935 0.0609323 4.22779C0.101155 4.12623 0.160097 4.03405 0.234358 3.95657L3.30846 0.731214C3.75412 0.262995 4.35824 -6.72773e-08 4.98812 -5.97661e-08C5.61799 -5.22549e-08 6.22211 0.262995 6.66778 0.731214Z" fill="white"/>
</svg>