<svg xmlns="http://www.w3.org/2000/svg" width="130" height="130" viewBox="0 0 130 130" fill="none">
  <circle opacity="0.5" cx="65" cy="65" r="65" fill="white"/>
  <circle cx="65" cy="65" r="50" fill="white"/>
  <path d="M75.615 59.9616L63.6925 51.2191C62.7613 50.5372 61.6594 50.1265 60.5091 50.0325C59.3587 49.9385 58.2048 50.1648 57.1752 50.6865C56.1457 51.2081 55.2806 52.0047 54.6761 52.9879C54.0715 53.971 53.751 55.1024 53.75 56.2566V73.7504C53.7482 74.9057 54.0671 76.0388 54.6711 77.0237C55.2751 78.0085 56.1405 78.8064 57.1711 79.3286C58.2017 79.8508 59.357 80.0767 60.5083 79.9812C61.6597 79.8857 62.762 79.4726 63.6925 78.7879L75.615 70.0454C76.4061 69.4648 77.0494 68.7061 77.4928 67.8307C77.9362 66.9554 78.1672 65.9879 78.1672 65.0066C78.1672 64.0253 77.9362 63.0579 77.4928 62.1825C77.0494 61.3071 76.4061 60.5484 75.615 59.9679V59.9616Z" fill="#171717"/>
</svg>