<svg xmlns="http://www.w3.org/2000/svg" width="21" height="16" viewBox="0 0 21 16" fill="none">
  <path d="M20.5617 2.50417C20.3195 1.51667 19.6082 0.741667 18.7047 0.479167C17.0668 0 10.5 0 10.5 0C10.5 0 3.93317 0 2.29531 0.479167C1.3918 0.741667 0.68052 1.51667 0.438301 2.50417C0 4.29167 0 8.01667 0 8.01667C0 8.01667 0 11.7417 0.438301 13.5292C0.68052 14.5167 1.3918 15.2583 2.29531 15.5208C3.93317 16 10.5 16 10.5 16C10.5 16 17.0668 16 18.7047 15.5208C19.6082 15.2583 20.3195 14.5125 20.5617 13.5292C21 11.7417 21 8.01667 21 8.01667C21 8.01667 21 4.29167 20.5617 2.50417ZM8.35463 11.4V4.63333L13.8411 8.01667L8.35463 11.4Z" fill="#171717"/>
</svg>